<mxfile host="app.diagrams.net" modified="2023-01-30T18:54:59.228Z" agent="5.0 (Windows)" etag="7JAzfOppP6XMC3OvXGGg" version="20.8.13" type="github">
  <diagram id="a45cf8ec-cd66-6f27-3ac3-be6e809c9e4a" name="Page-1">
    <mxGraphModel dx="1434" dy="782" grid="1" gridSize="10" guides="1" tooltips="1" connect="1" arrows="1" fold="1" page="1" pageScale="1" pageWidth="1400" pageHeight="850" background="none" math="0" shadow="0">
      <root>
        <mxCell id="0" />
        <mxCell id="1" parent="0" />
        <mxCell id="171" style="edgeStyle=orthogonalEdgeStyle;rounded=0;jumpStyle=none;html=1;exitX=0;exitY=0.5;entryX=0;entryY=0.5;shadow=0;labelBackgroundColor=none;startArrow=none;startFill=0;endArrow=classic;endFill=1;endSize=6;jettySize=auto;orthogonalLoop=1;strokeColor=#23445D;strokeWidth=2;fillColor=#F08705;fontFamily=Helvetica;fontSize=14;fontColor=#F08705;align=left;fontStyle=0" parent="1" edge="1">
          <mxGeometry relative="1" as="geometry">
            <mxPoint x="53" y="10" as="sourcePoint" />
            <mxPoint x="53" y="10" as="targetPoint" />
          </mxGeometry>
        </mxCell>
        <mxCell id="172" style="edgeStyle=orthogonalEdgeStyle;rounded=0;jumpStyle=none;html=1;exitX=0.75;exitY=0;entryX=0.75;entryY=0;shadow=0;labelBackgroundColor=none;startArrow=none;startFill=0;endArrow=classic;endFill=1;endSize=6;jettySize=auto;orthogonalLoop=1;strokeColor=#23445D;strokeWidth=2;fillColor=#F08705;fontFamily=Helvetica;fontSize=14;fontColor=#FFFFFF;align=left;fontStyle=0" parent="1" edge="1">
          <mxGeometry relative="1" as="geometry">
            <mxPoint x="706" y="142.5" as="sourcePoint" />
            <mxPoint x="706" y="142.5" as="targetPoint" />
          </mxGeometry>
        </mxCell>
        <mxCell id="qktHGp5J1m7n7TbcLb4_-181" value="identity" style="orthogonalLoop=1;jettySize=auto;html=1;fontColor=#000000;startArrow=classic;startFill=1;entryX=0;entryY=0.75;entryDx=0;entryDy=0;entryPerimeter=0;" parent="1" source="qktHGp5J1m7n7TbcLb4_-243" target="qktHGp5J1m7n7TbcLb4_-239" edge="1">
          <mxGeometry x="0.396" y="3" relative="1" as="geometry">
            <mxPoint x="98" y="445.5" as="sourcePoint" />
            <mxPoint x="399.5" y="520.1994219653179" as="targetPoint" />
            <mxPoint as="offset" />
          </mxGeometry>
        </mxCell>
        <mxCell id="qktHGp5J1m7n7TbcLb4_-189" value="" style="rounded=0;orthogonalLoop=1;jettySize=auto;html=1;fontColor=#000000;edgeStyle=orthogonalEdgeStyle;curved=1;exitX=1;exitY=0.5;exitDx=0;exitDy=0;exitPerimeter=0;" parent="1" source="qktHGp5J1m7n7TbcLb4_-239" target="qktHGp5J1m7n7TbcLb4_-241" edge="1">
          <mxGeometry relative="1" as="geometry">
            <mxPoint x="469.5" y="529" as="sourcePoint" />
            <mxPoint x="604.695652173913" y="585.5" as="targetPoint" />
          </mxGeometry>
        </mxCell>
        <mxCell id="qktHGp5J1m7n7TbcLb4_-236" style="orthogonalLoop=1;jettySize=auto;html=1;fontColor=#000000;startArrow=none;startFill=0;" parent="1" source="qktHGp5J1m7n7TbcLb4_-247" target="qktHGp5J1m7n7TbcLb4_-253" edge="1">
          <mxGeometry relative="1" as="geometry">
            <mxPoint x="469.5" y="529" as="sourcePoint" />
            <mxPoint x="826" y="412.5" as="targetPoint" />
          </mxGeometry>
        </mxCell>
        <mxCell id="qktHGp5J1m7n7TbcLb4_-193" value="identity" style="rounded=0;orthogonalLoop=1;jettySize=auto;html=1;fontColor=#000000;entryX=0;entryY=0.5;entryDx=0;entryDy=0;entryPerimeter=0;" parent="1" target="qktHGp5J1m7n7TbcLb4_-239" edge="1">
          <mxGeometry x="0.0047" relative="1" as="geometry">
            <mxPoint x="226" y="412.5" as="sourcePoint" />
            <mxPoint x="401" y="495.5" as="targetPoint" />
            <mxPoint as="offset" />
          </mxGeometry>
        </mxCell>
        <mxCell id="qktHGp5J1m7n7TbcLb4_-208" value="affiliate and identity" style="orthogonalLoop=1;jettySize=auto;html=1;entryX=0;entryY=0.61;entryDx=0;entryDy=0;entryPerimeter=0;fontColor=#000000;startArrow=none;startFill=0;strokeWidth=2;" parent="1" source="qktHGp5J1m7n7TbcLb4_-190" target="qktHGp5J1m7n7TbcLb4_-226" edge="1">
          <mxGeometry x="0.3902" y="-2" relative="1" as="geometry">
            <mxPoint as="offset" />
          </mxGeometry>
        </mxCell>
        <mxCell id="qktHGp5J1m7n7TbcLb4_-224" value="institutional roles" style="orthogonalLoop=1;jettySize=auto;html=1;fontColor=#000000;startArrow=none;startFill=0;entryX=0;entryY=0.5;entryDx=0;entryDy=0;entryPerimeter=0;strokeWidth=2;" parent="1" target="qktHGp5J1m7n7TbcLb4_-220" edge="1">
          <mxGeometry x="0.6248" y="3" relative="1" as="geometry">
            <mxPoint x="226" y="402.5" as="sourcePoint" />
            <mxPoint as="offset" />
          </mxGeometry>
        </mxCell>
        <mxCell id="qktHGp5J1m7n7TbcLb4_-190" value="ZUBLDAP" style="outlineConnect=0;dashed=0;verticalLabelPosition=bottom;verticalAlign=top;align=center;shape=mxgraph.aws3.generic_database;fillColor=#7D7C7C;gradientColor=none;labelBackgroundColor=none;fontColor=#000000;" parent="1" vertex="1">
          <mxGeometry x="176" y="362.5" width="49.5" height="64.5" as="geometry" />
        </mxCell>
        <mxCell id="qktHGp5J1m7n7TbcLb4_-178" value="USU Banner Ecosystem" style="rounded=1;shadow=0;strokeColor=none;fillColor=#BAC8D3;gradientColor=none;fontSize=18;fontColor=default;verticalAlign=bottom;fontStyle=0;opacity=40;strokeWidth=3;movable=1;resizable=1;rotatable=1;deletable=1;editable=1;connectable=1;container=0;" parent="1" vertex="1">
          <mxGeometry x="10" y="352" width="240" height="225.5" as="geometry" />
        </mxCell>
        <mxCell id="qktHGp5J1m7n7TbcLb4_-192" style="rounded=0;orthogonalLoop=1;jettySize=auto;html=1;fontColor=#000000;" parent="1" source="qktHGp5J1m7n7TbcLb4_-243" target="qktHGp5J1m7n7TbcLb4_-190" edge="1">
          <mxGeometry relative="1" as="geometry">
            <mxPoint x="93.67151483099678" y="423.13932022500194" as="sourcePoint" />
          </mxGeometry>
        </mxCell>
        <mxCell id="qktHGp5J1m7n7TbcLb4_-202" style="orthogonalLoop=1;jettySize=auto;html=1;fontColor=#000000;startArrow=none;startFill=0;" parent="1" source="qktHGp5J1m7n7TbcLb4_-243" target="qktHGp5J1m7n7TbcLb4_-245" edge="1">
          <mxGeometry relative="1" as="geometry">
            <mxPoint x="93.67151483099678" y="467.86067977499806" as="sourcePoint" />
            <mxPoint x="286" y="632.5" as="targetPoint" />
          </mxGeometry>
        </mxCell>
        <mxCell id="qktHGp5J1m7n7TbcLb4_-196" value="passwords and contact" style="rounded=0;orthogonalLoop=1;jettySize=auto;html=1;fontColor=#000000;startArrow=none;startFill=0;" parent="1" source="qktHGp5J1m7n7TbcLb4_-248" target="qktHGp5J1m7n7TbcLb4_-239" edge="1">
          <mxGeometry x="-0.6184" y="-4" relative="1" as="geometry">
            <mxPoint x="144.28427124746167" y="268.855339059327" as="sourcePoint" />
            <mxPoint x="434.5" y="495.5" as="targetPoint" />
            <mxPoint as="offset" />
          </mxGeometry>
        </mxCell>
        <mxCell id="qktHGp5J1m7n7TbcLb4_-203" style="orthogonalLoop=1;jettySize=auto;html=1;fontColor=#000000;startArrow=none;startFill=0;" parent="1" source="qktHGp5J1m7n7TbcLb4_-245" target="qktHGp5J1m7n7TbcLb4_-241" edge="1">
          <mxGeometry relative="1" as="geometry">
            <mxPoint x="366.39999999999964" y="640.5" as="sourcePoint" />
            <mxPoint x="565.0760869565215" y="652.5" as="targetPoint" />
          </mxGeometry>
        </mxCell>
        <mxCell id="qktHGp5J1m7n7TbcLb4_-210" value="account provisioning and identity" style="orthogonalLoop=1;jettySize=auto;html=1;fontColor=#000000;startArrow=none;startFill=0;strokeWidth=2;" parent="1" source="qktHGp5J1m7n7TbcLb4_-226" target="qktHGp5J1m7n7TbcLb4_-253" edge="1">
          <mxGeometry x="-0.4088" y="11" relative="1" as="geometry">
            <mxPoint x="848.1114561800014" y="367.7786404500039" as="targetPoint" />
            <mxPoint as="offset" />
          </mxGeometry>
        </mxCell>
        <mxCell id="qktHGp5J1m7n7TbcLb4_-228" style="edgeStyle=orthogonalEdgeStyle;curved=1;orthogonalLoop=1;jettySize=auto;html=1;fontColor=#000000;startArrow=none;startFill=0;" parent="1" source="qktHGp5J1m7n7TbcLb4_-253" target="qktHGp5J1m7n7TbcLb4_-227" edge="1">
          <mxGeometry relative="1" as="geometry">
            <mxPoint x="991.7770876399964" y="383.3606797749976" as="sourcePoint" />
          </mxGeometry>
        </mxCell>
        <mxCell id="qktHGp5J1m7n7TbcLb4_-230" style="edgeStyle=orthogonalEdgeStyle;orthogonalLoop=1;jettySize=auto;html=1;fontColor=#000000;startArrow=none;startFill=0;entryX=0;entryY=0.5;entryDx=0;entryDy=0;entryPerimeter=0;curved=1;" parent="1" source="qktHGp5J1m7n7TbcLb4_-253" target="qktHGp5J1m7n7TbcLb4_-233" edge="1">
          <mxGeometry relative="1" as="geometry">
            <mxPoint x="1026" y="184" as="targetPoint" />
            <mxPoint x="984.2842712474617" y="325.644660940673" as="sourcePoint" />
          </mxGeometry>
        </mxCell>
        <mxCell id="qktHGp5J1m7n7TbcLb4_-214" style="edgeStyle=orthogonalEdgeStyle;orthogonalLoop=1;jettySize=auto;html=1;fontColor=#000000;startArrow=none;startFill=0;dashed=1;curved=1;" parent="1" source="qktHGp5J1m7n7TbcLb4_-241" target="qktHGp5J1m7n7TbcLb4_-253" edge="1">
          <mxGeometry relative="1" as="geometry">
            <mxPoint x="692.739130434783" y="625.5" as="sourcePoint" />
            <mxPoint x="848.1114561800014" y="457.2213595499961" as="targetPoint" />
          </mxGeometry>
        </mxCell>
        <mxCell id="qktHGp5J1m7n7TbcLb4_-215" value="email and group&lt;br&gt;changes" style="edgeLabel;html=1;align=center;verticalAlign=middle;resizable=0;points=[];fontColor=#000000;" parent="qktHGp5J1m7n7TbcLb4_-214" vertex="1" connectable="0">
          <mxGeometry x="-0.2524" y="12" relative="1" as="geometry">
            <mxPoint x="-22" y="-15" as="offset" />
          </mxGeometry>
        </mxCell>
        <mxCell id="qktHGp5J1m7n7TbcLb4_-216" style="edgeStyle=orthogonalEdgeStyle;curved=1;orthogonalLoop=1;jettySize=auto;html=1;fontColor=#000000;startArrow=none;startFill=0;dashed=1;" parent="1" source="qktHGp5J1m7n7TbcLb4_-241" target="qktHGp5J1m7n7TbcLb4_-240" edge="1">
          <mxGeometry relative="1" as="geometry">
            <mxPoint x="686.8695652173915" y="645.5" as="sourcePoint" />
            <mxPoint x="1202.5" y="555.5" as="targetPoint" />
          </mxGeometry>
        </mxCell>
        <mxCell id="qktHGp5J1m7n7TbcLb4_-217" value="email alias" style="edgeLabel;html=1;align=center;verticalAlign=middle;resizable=0;points=[];fontColor=#000000;" parent="qktHGp5J1m7n7TbcLb4_-216" vertex="1" connectable="0">
          <mxGeometry x="-0.2524" y="12" relative="1" as="geometry">
            <mxPoint x="-5" y="2" as="offset" />
          </mxGeometry>
        </mxCell>
        <mxCell id="qktHGp5J1m7n7TbcLb4_-225" value="institutional roles&lt;br&gt;and mailbox" style="orthogonalLoop=1;jettySize=auto;html=1;fontColor=#000000;startArrow=none;startFill=0;strokeWidth=2;" parent="1" source="qktHGp5J1m7n7TbcLb4_-220" target="qktHGp5J1m7n7TbcLb4_-253" edge="1">
          <mxGeometry x="-0.4635" y="5" relative="1" as="geometry">
            <mxPoint x="830.2229123600036" y="390.1393202250024" as="targetPoint" />
            <mxPoint as="offset" />
          </mxGeometry>
        </mxCell>
        <mxCell id="qktHGp5J1m7n7TbcLb4_-220" value="Email Provisioner" style="outlineConnect=0;dashed=0;verticalLabelPosition=bottom;verticalAlign=top;align=center;html=1;shape=mxgraph.aws3.android;fillColor=#FFD44F;gradientColor=none;labelBackgroundColor=none;fontColor=#000000;" parent="1" vertex="1">
          <mxGeometry x="566" y="292" width="60" height="60" as="geometry" />
        </mxCell>
        <mxCell id="qktHGp5J1m7n7TbcLb4_-226" value="powerchuk" style="outlineConnect=0;dashed=0;verticalLabelPosition=bottom;verticalAlign=top;align=center;html=1;shape=mxgraph.aws3.toolkit_for_windows_powershell;fillColor=#737373;gradientColor=none;labelBackgroundColor=none;fontColor=#000000;" parent="1" vertex="1">
          <mxGeometry x="469.5" y="162.5" width="70.5" height="78" as="geometry" />
        </mxCell>
        <mxCell id="qktHGp5J1m7n7TbcLb4_-229" style="orthogonalLoop=1;jettySize=auto;html=1;fontColor=#000000;startArrow=none;startFill=0;" parent="1" source="qktHGp5J1m7n7TbcLb4_-227" target="qktHGp5J1m7n7TbcLb4_-240" edge="1">
          <mxGeometry relative="1" as="geometry">
            <mxPoint x="1237" y="386" as="targetPoint" />
          </mxGeometry>
        </mxCell>
        <mxCell id="qktHGp5J1m7n7TbcLb4_-227" value="azure/ad sync" style="outlineConnect=0;dashed=0;verticalLabelPosition=bottom;verticalAlign=top;align=center;html=1;shape=mxgraph.aws3.android;fillColor=#115193;gradientColor=none;labelBackgroundColor=none;fontColor=#000000;" parent="1" vertex="1">
          <mxGeometry x="1046" y="272" width="60" height="60" as="geometry" />
        </mxCell>
        <mxCell id="qktHGp5J1m7n7TbcLb4_-234" style="orthogonalLoop=1;jettySize=auto;html=1;fontColor=#000000;startArrow=none;startFill=0;" parent="1" source="qktHGp5J1m7n7TbcLb4_-233" target="qktHGp5J1m7n7TbcLb4_-242" edge="1">
          <mxGeometry relative="1" as="geometry">
            <mxPoint x="1245.4" y="115" as="targetPoint" />
          </mxGeometry>
        </mxCell>
        <mxCell id="qktHGp5J1m7n7TbcLb4_-233" value="GADS" style="outlineConnect=0;dashed=0;verticalLabelPosition=bottom;verticalAlign=top;align=center;html=1;shape=mxgraph.aws3.android;fillColor=#96BF3D;gradientColor=none;labelBackgroundColor=none;fontColor=#000000;" parent="1" vertex="1">
          <mxGeometry x="1046" y="162.5" width="60" height="60" as="geometry" />
        </mxCell>
        <mxCell id="qktHGp5J1m7n7TbcLb4_-267" style="orthogonalLoop=1;jettySize=auto;html=1;fontColor=default;startArrow=none;startFill=0;endArrow=classic;endFill=1;" parent="1" source="qktHGp5J1m7n7TbcLb4_-240" target="qktHGp5J1m7n7TbcLb4_-264" edge="1">
          <mxGeometry relative="1" as="geometry" />
        </mxCell>
        <mxCell id="qktHGp5J1m7n7TbcLb4_-268" style="orthogonalLoop=1;jettySize=auto;html=1;fontColor=default;startArrow=none;startFill=0;endArrow=classic;endFill=1;" parent="1" source="qktHGp5J1m7n7TbcLb4_-240" target="qktHGp5J1m7n7TbcLb4_-266" edge="1">
          <mxGeometry relative="1" as="geometry" />
        </mxCell>
        <mxCell id="qktHGp5J1m7n7TbcLb4_-269" style="orthogonalLoop=1;jettySize=auto;html=1;fontColor=default;startArrow=none;startFill=0;endArrow=classic;endFill=1;" parent="1" source="qktHGp5J1m7n7TbcLb4_-240" target="qktHGp5J1m7n7TbcLb4_-265" edge="1">
          <mxGeometry relative="1" as="geometry" />
        </mxCell>
        <mxCell id="qktHGp5J1m7n7TbcLb4_-240" value="azure" style="sketch=0;pointerEvents=1;shadow=0;dashed=0;html=1;strokeColor=none;fillColor=#505050;labelPosition=center;verticalLabelPosition=bottom;outlineConnect=0;verticalAlign=top;align=center;shape=mxgraph.office.clouds.azure;labelBackgroundColor=none;fontColor=default;" parent="1" vertex="1">
          <mxGeometry x="1153" y="269" width="103" height="66" as="geometry" />
        </mxCell>
        <mxCell id="qktHGp5J1m7n7TbcLb4_-241" value="servicenow" style="sketch=0;pointerEvents=1;shadow=0;dashed=0;html=1;strokeColor=none;fillColor=#505050;labelPosition=center;verticalLabelPosition=bottom;outlineConnect=0;verticalAlign=top;align=center;shape=mxgraph.office.clouds.cloud;labelBackgroundColor=none;fontColor=default;" parent="1" vertex="1">
          <mxGeometry x="626" y="522.5" width="94" height="55" as="geometry" />
        </mxCell>
        <mxCell id="qktHGp5J1m7n7TbcLb4_-242" value="google" style="sketch=0;pointerEvents=1;shadow=0;dashed=0;html=1;strokeColor=none;fillColor=#505050;labelPosition=center;verticalLabelPosition=bottom;outlineConnect=0;verticalAlign=top;align=center;shape=mxgraph.office.clouds.cloud;labelBackgroundColor=none;fontColor=default;" parent="1" vertex="1">
          <mxGeometry x="1162" y="165" width="94" height="55" as="geometry" />
        </mxCell>
        <mxCell id="qktHGp5J1m7n7TbcLb4_-243" value="Banner&lt;br&gt;daatbase" style="sketch=0;shadow=0;dashed=0;html=1;strokeColor=none;labelPosition=center;verticalLabelPosition=bottom;verticalAlign=top;outlineConnect=0;align=center;shape=mxgraph.office.databases.database_mini_2;fillColor=#2072B8;labelBackgroundColor=none;fontColor=default;" parent="1" vertex="1">
          <mxGeometry x="56" y="414.75" width="65" height="90" as="geometry" />
        </mxCell>
        <mxCell id="qktHGp5J1m7n7TbcLb4_-245" value="servicenow&lt;br style=&quot;border-color: var(--border-color);&quot;&gt;midserver&lt;br style=&quot;border-color: var(--border-color);&quot;&gt;(jdbc)" style="sketch=0;pointerEvents=1;shadow=0;dashed=0;html=1;strokeColor=none;labelPosition=center;verticalLabelPosition=bottom;verticalAlign=top;outlineConnect=0;align=center;shape=mxgraph.office.servers.server_generic;fillColor=#2072B8;labelBackgroundColor=none;fontColor=default;" parent="1" vertex="1">
          <mxGeometry x="419.25" y="592.5" width="27" height="52" as="geometry" />
        </mxCell>
        <mxCell id="qktHGp5J1m7n7TbcLb4_-257" style="orthogonalLoop=1;jettySize=auto;html=1;fontColor=default;startArrow=none;startFill=0;endArrow=classic;endFill=1;" parent="1" source="qktHGp5J1m7n7TbcLb4_-253" target="qktHGp5J1m7n7TbcLb4_-261" edge="1">
          <mxGeometry relative="1" as="geometry">
            <mxPoint x="1056" y="662.5" as="targetPoint" />
          </mxGeometry>
        </mxCell>
        <mxCell id="qktHGp5J1m7n7TbcLb4_-270" style="orthogonalLoop=1;jettySize=auto;html=1;fontColor=default;startArrow=none;startFill=0;endArrow=classic;endFill=1;" parent="1" source="qktHGp5J1m7n7TbcLb4_-253" target="qktHGp5J1m7n7TbcLb4_-263" edge="1">
          <mxGeometry relative="1" as="geometry">
            <mxPoint x="976" y="376.5" as="sourcePoint" />
          </mxGeometry>
        </mxCell>
        <mxCell id="qktHGp5J1m7n7TbcLb4_-271" style="orthogonalLoop=1;jettySize=auto;html=1;fontColor=default;startArrow=none;startFill=0;endArrow=classic;endFill=1;" parent="1" source="qktHGp5J1m7n7TbcLb4_-253" target="qktHGp5J1m7n7TbcLb4_-262" edge="1">
          <mxGeometry relative="1" as="geometry" />
        </mxCell>
        <mxCell id="qktHGp5J1m7n7TbcLb4_-246" value="AD Ecosystem" style="rounded=1;shadow=0;strokeColor=none;fillColor=#BAC8D3;gradientColor=none;fontSize=18;fontColor=default;verticalAlign=bottom;fontStyle=0;opacity=40;strokeWidth=3;movable=1;resizable=1;rotatable=1;deletable=1;editable=1;connectable=1;container=0;" parent="1" vertex="1">
          <mxGeometry x="776" y="260.5" width="200" height="232" as="geometry" />
        </mxCell>
        <mxCell id="qktHGp5J1m7n7TbcLb4_-248" value="MyID" style="sketch=0;pointerEvents=1;shadow=0;dashed=0;html=1;strokeColor=none;fillColor=#505050;labelPosition=center;verticalLabelPosition=bottom;verticalAlign=top;outlineConnect=0;align=center;shape=mxgraph.office.servers.web_server_blue;labelBackgroundColor=none;fontColor=default;" parent="1" vertex="1">
          <mxGeometry x="106" y="212.5" width="48" height="57" as="geometry" />
        </mxCell>
        <mxCell id="qktHGp5J1m7n7TbcLb4_-250" value="" style="orthogonalLoop=1;jettySize=auto;html=1;dashed=1;fontColor=#000000;startArrow=none;startFill=0;endArrow=classic;edgeStyle=orthogonalEdgeStyle;curved=1;endFill=1;" parent="1" source="qktHGp5J1m7n7TbcLb4_-241" target="qktHGp5J1m7n7TbcLb4_-239" edge="1">
          <mxGeometry relative="1" as="geometry">
            <mxPoint x="606" y="720" as="sourcePoint" />
            <mxPoint x="446" y="502.5" as="targetPoint" />
          </mxGeometry>
        </mxCell>
        <mxCell id="qktHGp5J1m7n7TbcLb4_-251" value="email alias" style="edgeLabel;html=1;align=center;verticalAlign=middle;resizable=0;points=[];fontColor=#000000;" parent="qktHGp5J1m7n7TbcLb4_-250" vertex="1" connectable="0">
          <mxGeometry x="-0.1914" y="-9" relative="1" as="geometry">
            <mxPoint x="-5" y="-15" as="offset" />
          </mxGeometry>
        </mxCell>
        <mxCell id="qktHGp5J1m7n7TbcLb4_-239" value="USU API" style="outlineConnect=0;dashed=0;verticalLabelPosition=bottom;verticalAlign=top;align=center;html=1;shape=mxgraph.aws3.android;fillColor=#205E00;gradientColor=none;labelBackgroundColor=none;fontColor=#000000;" parent="1" vertex="1">
          <mxGeometry x="396" y="399.5" width="73.5" height="84" as="geometry" />
        </mxCell>
        <mxCell id="qktHGp5J1m7n7TbcLb4_-253" value="" style="sketch=0;pointerEvents=1;shadow=0;dashed=0;html=1;strokeColor=none;fillColor=#505050;labelPosition=center;verticalLabelPosition=bottom;verticalAlign=top;outlineConnect=0;align=center;shape=mxgraph.office.servers.active_directory_federation_services_server_blue;labelBackgroundColor=none;fontColor=default;" parent="1" vertex="1">
          <mxGeometry x="886" y="295.5" width="70" height="85.5" as="geometry" />
        </mxCell>
        <mxCell id="qktHGp5J1m7n7TbcLb4_-254" value="passwords" style="orthogonalLoop=1;jettySize=auto;html=1;fontColor=#000000;startArrow=none;startFill=0;endArrow=none;" parent="1" source="qktHGp5J1m7n7TbcLb4_-239" target="qktHGp5J1m7n7TbcLb4_-247" edge="1">
          <mxGeometry relative="1" as="geometry">
            <mxPoint x="469.5" y="436.9650537634409" as="sourcePoint" />
            <mxPoint x="886" y="345.90232974910396" as="targetPoint" />
          </mxGeometry>
        </mxCell>
        <mxCell id="qktHGp5J1m7n7TbcLb4_-247" value="dc&lt;br&gt;sherpa" style="sketch=0;pointerEvents=1;shadow=0;dashed=0;html=1;strokeColor=none;labelPosition=center;verticalLabelPosition=bottom;verticalAlign=top;outlineConnect=0;align=center;shape=mxgraph.office.servers.server_generic;fillColor=#2072B8;labelBackgroundColor=none;fontColor=default;" parent="1" vertex="1">
          <mxGeometry x="806" y="362.75" width="27" height="52" as="geometry" />
        </mxCell>
        <mxCell id="qktHGp5J1m7n7TbcLb4_-261" value="Shibboleth" style="sketch=0;shadow=0;dashed=0;html=1;strokeColor=none;labelPosition=center;verticalLabelPosition=bottom;verticalAlign=top;outlineConnect=0;align=center;shape=mxgraph.office.databases.database_mini_1;fillColor=#DA4026;labelBackgroundColor=none;fontColor=default;" parent="1" vertex="1">
          <mxGeometry x="1346" y="442.5" width="35" height="27" as="geometry" />
        </mxCell>
        <mxCell id="qktHGp5J1m7n7TbcLb4_-262" value="CAS" style="sketch=0;shadow=0;dashed=0;html=1;strokeColor=none;labelPosition=center;verticalLabelPosition=bottom;verticalAlign=top;outlineConnect=0;align=center;shape=mxgraph.office.databases.database_mini_1;fillColor=#7FBA42;labelBackgroundColor=none;fontColor=default;" parent="1" vertex="1">
          <mxGeometry x="1346" y="582.5" width="35" height="27" as="geometry" />
        </mxCell>
        <mxCell id="qktHGp5J1m7n7TbcLb4_-263" value="SAML" style="sketch=0;shadow=0;dashed=0;html=1;strokeColor=none;labelPosition=center;verticalLabelPosition=bottom;verticalAlign=top;outlineConnect=0;align=center;shape=mxgraph.office.databases.database_mini_1;fillColor=#2072B8;labelBackgroundColor=none;fontColor=default;" parent="1" vertex="1">
          <mxGeometry x="1346" y="512.5" width="35" height="27" as="geometry" />
        </mxCell>
        <mxCell id="qktHGp5J1m7n7TbcLb4_-264" value="Shibboleth" style="sketch=0;shadow=0;dashed=0;html=1;strokeColor=none;labelPosition=center;verticalLabelPosition=bottom;verticalAlign=top;outlineConnect=0;align=center;shape=mxgraph.office.databases.database_mini_1;fillColor=#DA4026;labelBackgroundColor=none;fontColor=default;" parent="1" vertex="1">
          <mxGeometry x="1346" y="232.5" width="35" height="27" as="geometry" />
        </mxCell>
        <mxCell id="qktHGp5J1m7n7TbcLb4_-265" value="CAS" style="sketch=0;shadow=0;dashed=0;html=1;strokeColor=none;labelPosition=center;verticalLabelPosition=bottom;verticalAlign=top;outlineConnect=0;align=center;shape=mxgraph.office.databases.database_mini_1;fillColor=#7FBA42;labelBackgroundColor=none;fontColor=default;" parent="1" vertex="1">
          <mxGeometry x="1346" y="372.5" width="35" height="27" as="geometry" />
        </mxCell>
        <mxCell id="qktHGp5J1m7n7TbcLb4_-266" value="SAML" style="sketch=0;shadow=0;dashed=0;html=1;strokeColor=none;labelPosition=center;verticalLabelPosition=bottom;verticalAlign=top;outlineConnect=0;align=center;shape=mxgraph.office.databases.database_mini_1;fillColor=#2072B8;labelBackgroundColor=none;fontColor=default;" parent="1" vertex="1">
          <mxGeometry x="1346" y="302.5" width="35" height="27" as="geometry" />
        </mxCell>
      </root>
    </mxGraphModel>
  </diagram>
</mxfile>
